<svg width="24" height="24" viewBox="0 0 20 20" fill="none" xmlns="http://www.w3.org/2000/svg">
    <path d="M9.85938 5.41406L9.39062 5.85938C9.27344 5.97656 9.27344 6.16406 9.39062 6.25781L13.0234 9.89062H5.03125C4.86719 9.89062 4.75 10.0312 4.75 10.1719V10.8281C4.75 10.9922 4.86719 11.1094 5.03125 11.1094H13.0234L9.39062 14.7656C9.27344 14.8594 9.27344 15.0469 9.39062 15.1641L9.85938 15.6094C9.95312 15.7266 10.1406 15.7266 10.2578 15.6094L15.1562 10.7109C15.2734 10.5938 15.2734 10.4297 15.1562 10.3125L10.2578 5.41406C10.1406 5.29688 9.95312 5.29688 9.85938 5.41406Z" fill="#85458A"/>
</svg>
