<svg width="17" height="16" viewBox="0 0 17 16" fill="none" xmlns="http://www.w3.org/2000/svg">
<path d="M16.4062 5.78125L14.8125 1.03125C14.625 0.4375 14.0625 0 13.4062 0H3.5625C2.90625 0 2.34375 0.4375 2.15625 1.03125L0.5625 5.78125C0.5 5.9375 0.5 6.09375 0.5 6.25V14.5C0.5 15.3438 1.15625 16 2 16H15C15.8125 16 16.5 15.3438 16.5 14.5V6.25C16.5 6.09375 16.4688 5.9375 16.4062 5.78125ZM14.9062 6H9.25V1.5H13.4062L14.9062 6ZM3.5625 1.5H7.75V6H2.0625L3.5625 1.5ZM2 14.5V7.5H15V14.5H2Z" fill="white"/>
</svg>
