<svg width="22" height="20" viewBox="0 0 22 20" fill="none" xmlns="http://www.w3.org/2000/svg">
<path d="M4.25 1.25024C4.63672 1.25024 4.98828 1.56665 5.05859 1.95337L5.12891 2.37524H19.8945C20.6328 2.37524 21.1953 3.11353 20.9844 3.81665L19.0859 10.5667C18.9453 11.0588 18.5234 11.3752 17.9961 11.3752H6.85156L7.16797 13.0627H18.0312C18.4883 13.0627 18.875 13.4495 18.875 13.9065C18.875 14.3987 18.4883 14.7502 18.0312 14.7502H6.46484C6.07812 14.7502 5.72656 14.469 5.65625 14.0823L3.54688 2.93774H1.71875C1.22656 2.93774 0.875 2.58618 0.875 2.09399C0.875 1.63696 1.22656 1.25024 1.71875 1.25024H4.25ZM17.5742 9.68774L19.1562 4.06274H5.48047L6.53516 9.68774H17.5742ZM5.375 17.5627C5.375 16.6487 6.11328 15.8752 7.0625 15.8752C7.97656 15.8752 8.75 16.6487 8.75 17.5627C8.75 18.512 7.97656 19.2502 7.0625 19.2502C6.11328 19.2502 5.375 18.512 5.375 17.5627ZM18.875 17.5627C18.875 18.512 18.1016 19.2502 17.1875 19.2502C16.2383 19.2502 15.5 18.512 15.5 17.5627C15.5 16.6487 16.2383 15.8752 17.1875 15.8752C18.1016 15.8752 18.875 16.6487 18.875 17.5627Z" fill="black"/>
</svg>
