<svg width="17" height="16" viewBox="0 0 17 16" fill="none" xmlns="http://www.w3.org/2000/svg">
<path d="M8.5 0.25C4.21875 0.25 0.75 3.71875 0.75 8C0.75 12.2812 4.21875 15.75 8.5 15.75C12.7812 15.75 16.25 12.2812 16.25 8C16.25 3.71875 12.7812 0.25 8.5 0.25ZM8.5 14.25C5.03125 14.25 2.25 11.4688 2.25 8C2.25 4.5625 5.03125 1.75 8.5 1.75C11.9375 1.75 14.75 4.5625 14.75 8C14.75 11.4688 11.9375 14.25 8.5 14.25ZM10.4062 11C10.5938 11.125 10.8125 11.0938 10.9375 10.9062L11.5312 10.125C11.6562 9.9375 11.625 9.71875 11.4375 9.59375L9.375 8.0625V3.625C9.375 3.4375 9.1875 3.25 9 3.25H8C7.78125 3.25 7.625 3.4375 7.625 3.625V8.78125C7.625 8.875 7.65625 9 7.75 9.0625L10.4062 11Z" fill="white"/>
</svg>
