<svg width="12" height="13" viewBox="0 0 12 13" fill="none" xmlns="http://www.w3.org/2000/svg">
<path d="M5.25 8.37524V5.02368C5.25 4.60181 4.89844 4.27368 4.5 4.27368H3.375C2.53125 4.27368 1.875 4.95337 1.875 5.77368V7.62524C1.875 8.46899 2.53125 9.12524 3.375 9.12524H4.5C4.89844 9.12524 5.25 8.79712 5.25 8.37524ZM4.125 8.00024H3.375C3.16406 8.00024 3 7.83618 3 7.62524V5.77368C3 5.56274 3.16406 5.39868 3.375 5.39868H4.125V8.00024ZM6 0.500244C2.64844 0.500244 0.09375 3.28931 0 6.50024V6.87524C0 7.08618 0.164062 7.25024 0.375 7.25024H0.75C0.9375 7.25024 1.125 7.08618 1.125 6.87524V6.50024C1.125 3.82837 3.30469 1.62524 6 1.62524C8.67188 1.62524 10.875 3.82837 10.875 6.50024H10.8516C10.8516 6.57056 10.875 10.3909 10.875 10.3909C10.875 10.9534 10.4297 11.3752 9.86719 11.3752H7.5C7.5 10.7659 6.98438 10.2502 6.375 10.2502H5.625C4.99219 10.2502 4.5 10.7659 4.5 11.3752C4.5 12.0081 4.99219 12.5002 5.625 12.5002H9.86719C11.0391 12.5002 12 11.5627 12 10.3909V6.50024C11.8828 3.28931 9.32812 0.500244 6 0.500244ZM8.625 9.12524C9.44531 9.12524 10.125 8.46899 10.125 7.62524V5.77368C10.125 4.95337 9.44531 4.27368 8.625 4.27368H7.5C7.07812 4.27368 6.75 4.60181 6.75 5.02368V8.37524C6.75 8.79712 7.07812 9.12524 7.5 9.12524H8.625ZM7.875 5.39868H8.625C8.8125 5.39868 9 5.56274 9 5.77368V7.62524C9 7.83618 8.8125 8.00024 8.625 8.00024H7.875V5.39868Z" fill="white"/>
</svg>
