<svg width="20" height="20" viewBox="0 0 20 20" fill="none" xmlns="http://www.w3.org/2000/svg">
<path d="M9.57812 4.20337L9.96484 4.62524L10.3867 4.23853C11.5469 3.07837 13.1992 2.55103 14.7812 2.83228C17.207 3.21899 19 5.32837 19 7.78931V7.96509C19 9.44165 18.3672 10.8479 17.3125 11.8323L10.9492 17.7737C10.7031 18.0198 10.3516 18.1252 10 18.1252C9.61328 18.1252 9.26172 18.0198 9.01562 17.7737L2.65234 11.8323C1.59766 10.8479 1 9.44165 1 7.96509V7.78931C1 5.32837 2.75781 3.21899 5.18359 2.83228C6.76562 2.55103 8.41797 3.07837 9.57812 4.20337C9.57812 4.23853 9.54297 4.20337 9.57812 4.20337ZM9.96484 7.01587L8.38281 5.39868C7.60938 4.6604 6.51953 4.30884 5.46484 4.48462C3.84766 4.76587 2.6875 6.13696 2.6875 7.78931V7.96509C2.6875 8.98462 3.07422 9.93384 3.8125 10.6018L10 16.3674L16.1523 10.6018C16.8906 9.93384 17.3125 8.98462 17.3125 7.96509V7.78931C17.3125 6.13696 16.1172 4.76587 14.5 4.48462C13.4453 4.30884 12.3555 4.6604 11.582 5.39868L9.96484 7.01587Z" fill="black"/>
</svg>
