<svg xlink:href="#icon-instagram" width="17" height="16" viewBox="0 0 17 16" fill="none" xmlns="http://www.w3.org/2000/svg">
<g clip-path="url(#clip0_1515_36455)">
<path fill-rule="evenodd" clip-rule="evenodd" d="M8.5 1.44062C10.6375 1.44062 10.8906 1.45 11.7312 1.4875C12.5125 1.52187 12.9344 1.65313 13.2156 1.7625C13.5875 1.90625 13.8562 2.08125 14.1344 2.35937C14.4156 2.64062 14.5875 2.90625 14.7312 3.27813C14.8406 3.55937 14.9719 3.98437 15.0062 4.7625C15.0437 5.60625 15.0531 5.85938 15.0531 7.99375C15.0531 10.1312 15.0437 10.3844 15.0062 11.225C14.9719 12.0063 14.8406 12.4281 14.7312 12.7094C14.5875 13.0813 14.4125 13.35 14.1344 13.6281C13.8531 13.9094 13.5875 14.0813 13.2156 14.225C12.9344 14.3344 12.5094 14.4656 11.7312 14.5C10.8875 14.5375 10.6344 14.5469 8.5 14.5469C6.3625 14.5469 6.10937 14.5375 5.26875 14.5C4.4875 14.4656 4.06562 14.3344 3.78437 14.225C3.4125 14.0813 3.14375 13.9062 2.86562 13.6281C2.58437 13.3469 2.4125 13.0813 2.26875 12.7094C2.15937 12.4281 2.02812 12.0031 1.99375 11.225C1.95625 10.3813 1.94687 10.1281 1.94687 7.99375C1.94687 5.85625 1.95625 5.60312 1.99375 4.7625C2.02812 3.98125 2.15937 3.55937 2.26875 3.27813C2.4125 2.90625 2.5875 2.6375 2.86562 2.35937C3.14687 2.07812 3.4125 1.90625 3.78437 1.7625C4.06562 1.65313 4.49062 1.52187 5.26875 1.4875C6.10937 1.45 6.3625 1.44062 8.5 1.44062ZM8.5 0C6.32812 0 6.05625 0.009375 5.20312 0.046875C4.35312 0.084375 3.76875 0.221875 3.2625 0.41875C2.73437 0.625 2.2875 0.896875 1.84375 1.34375C1.39687 1.7875 1.125 2.23438 0.91875 2.75938C0.721875 3.26875 0.584375 3.85 0.546875 4.7C0.509375 5.55625 0.5 5.82812 0.5 8C0.5 10.1719 0.509375 10.4437 0.546875 11.2969C0.584375 12.1469 0.721875 12.7312 0.91875 13.2375C1.125 13.7656 1.39687 14.2125 1.84375 14.6562C2.2875 15.1 2.73438 15.375 3.25937 15.5781C3.76875 15.775 4.35 15.9125 5.2 15.95C6.05312 15.9875 6.325 15.9969 8.49687 15.9969C10.6687 15.9969 10.9406 15.9875 11.7937 15.95C12.6437 15.9125 13.2281 15.775 13.7344 15.5781C14.2594 15.375 14.7062 15.1 15.15 14.6562C15.5937 14.2125 15.8687 13.7656 16.0719 13.2406C16.2687 12.7312 16.4062 12.15 16.4437 11.3C16.4812 10.4469 16.4906 10.175 16.4906 8.00313C16.4906 5.83125 16.4812 5.55937 16.4437 4.70625C16.4062 3.85625 16.2687 3.27187 16.0719 2.76562C15.875 2.23437 15.6031 1.7875 15.1562 1.34375C14.7125 0.9 14.2656 0.625 13.7406 0.421875C13.2312 0.225 12.65 0.0875 11.8 0.05C10.9437 0.009375 10.6719 0 8.5 0ZM8.5 3.89062C6.23125 3.89062 4.39062 5.73125 4.39062 8C4.39062 10.2688 6.23125 12.1094 8.5 12.1094C10.7688 12.1094 12.6094 10.2688 12.6094 8C12.6094 5.73125 10.7688 3.89062 8.5 3.89062ZM8.5 10.6656C7.02813 10.6656 5.83437 9.47188 5.83437 8C5.83437 6.52813 7.02813 5.33437 8.5 5.33437C9.97188 5.33437 11.1656 6.52813 11.1656 8C11.1656 9.47188 9.97188 10.6656 8.5 10.6656ZM12.7719 4.68747C13.3 4.68747 13.7312 4.25934 13.7312 3.72809C13.7312 3.19997 13.3 2.76872 12.7719 2.76872C12.2438 2.76872 11.8125 3.19684 11.8125 3.72809C11.8125 4.25622 12.2406 4.68747 12.7719 4.68747Z" fill="white"/>
</g>
<defs>
<clipPath id="clip0_1515_36455">
<rect width="16" height="16" fill="white" transform="translate(0.5)"/>
</clipPath>
</defs>
</svg>
