<svg width="16" height="16" viewBox="0 0 16 19" fill="none" xmlns="http://www.w3.org/2000/svg">
<path d="M11.1289 10.8833C10.1094 10.8833 9.65234 11.4458 8 11.4458C6.3125 11.4458 5.85547 10.8833 4.83594 10.8833C2.23438 10.8833 0.125 13.0278 0.125 15.6294V16.5083C0.125 17.4575 0.863281 18.1958 1.8125 18.1958H14.1875C15.1016 18.1958 15.875 17.4575 15.875 16.5083V15.6294C15.875 13.0278 13.7305 10.8833 11.1289 10.8833ZM14.1875 16.5083H1.8125V15.6294C1.8125 13.9419 3.14844 12.5708 4.83594 12.5708C5.36328 12.5708 6.17188 13.1333 8 13.1333C9.79297 13.1333 10.6016 12.5708 11.1289 12.5708C12.8164 12.5708 14.1875 13.9419 14.1875 15.6294V16.5083ZM8 10.3208C10.7773 10.3208 13.0625 8.0708 13.0625 5.2583C13.0625 2.48096 10.7773 0.195801 8 0.195801C5.1875 0.195801 2.9375 2.48096 2.9375 5.2583C2.9375 8.0708 5.1875 10.3208 8 10.3208ZM8 1.8833C9.82812 1.8833 11.375 3.43018 11.375 5.2583C11.375 7.12158 9.82812 8.6333 8 8.6333C6.13672 8.6333 4.625 7.12158 4.625 5.2583C4.625 3.43018 6.13672 1.8833 8 1.8833Z" fill="black"/>
</svg>
