<svg width="16" height="16" viewBox="0 0 16 16" fill="none" xmlns="http://www.w3.org/2000/svg">
<path d="M15.5312 11.3127L12.0312 9.81274C11.9375 9.78149 11.8438 9.75024 11.7188 9.75024C11.5 9.75024 11.2812 9.87524 11.1562 10.0315L9.59375 11.9377C7.15625 10.7815 5.21875 8.84399 4.0625 6.40649L5.96875 4.84399C6.125 4.71899 6.25 4.50024 6.25 4.25024C6.25 4.15649 6.21875 4.06274 6.1875 3.96899L4.6875 0.468994C4.5625 0.187744 4.28125 0.000244141 3.96875 0.000244141C3.9375 0.000244141 3.875 0.0314941 3.8125 0.0314941L0.5625 0.781494C0.21875 0.875244 0 1.15649 0 1.50024C0 9.53149 6.46875 16.0002 14.5 16.0002C14.8438 16.0002 15.125 15.7815 15.2188 15.4377L15.9688 12.1877C15.9688 12.1252 15.9688 12.0627 15.9688 12.0315C15.9688 11.719 15.7812 11.4377 15.5312 11.3127Z" fill="#FFB500"/>
</svg>
