<svg xlink:href="#icon-twitter" width="17" height="14" viewBox="0 0 17 14" fill="none" xmlns="http://www.w3.org/2000/svg">
<path d="M5.53344 13.3338C11.5697 13.3338 14.8722 8.33163 14.8722 3.99506C14.8722 3.85444 14.8691 3.71069 14.8628 3.57006C15.5052 3.10546 16.0597 2.52999 16.5 1.87069C15.9017 2.13689 15.2664 2.31075 14.6159 2.38631C15.3009 1.97576 15.8137 1.33081 16.0594 0.571002C15.415 0.952862 14.7104 1.22223 13.9756 1.36756C13.4806 0.841531 12.826 0.493235 12.1131 0.376525C11.4003 0.259815 10.6688 0.381191 10.0318 0.721888C9.39486 1.06259 8.88787 1.60363 8.58923 2.26137C8.2906 2.9191 8.21695 3.6569 8.37969 4.36069C7.075 4.29522 5.79862 3.95629 4.63332 3.36589C3.46802 2.77549 2.4398 1.94678 1.61531 0.933502C1.19627 1.65599 1.06804 2.51092 1.25669 3.32455C1.44534 4.13818 1.93671 4.84946 2.63094 5.31381C2.10975 5.29727 1.59998 5.15694 1.14375 4.90444V4.94506C1.14328 5.70326 1.4054 6.43821 1.88554 7.025C2.36568 7.61179 3.03422 8.0142 3.7775 8.16381C3.2947 8.29591 2.78799 8.31516 2.29656 8.22006C2.5063 8.87211 2.91438 9.44242 3.46385 9.85138C4.01331 10.2603 4.67675 10.4876 5.36156 10.5013C4.19895 11.4146 2.76278 11.9099 1.28438 11.9076C1.02219 11.9072 0.760266 11.8911 0.5 11.8594C2.0019 12.823 3.74902 13.3347 5.53344 13.3338Z" fill="white"/>
</svg>
